<svg width="41" height="40" viewBox="0 0 41 40" fill="none" xmlns="http://www.w3.org/2000/svg">
<g clip-path="url(#clip0_283_4208)">
<path fill-rule="evenodd" clip-rule="evenodd" d="M20.3942 40C19.0012 40 17.8716 38.8775 17.8716 37.4912V22.5079C17.8716 21.1225 19.0012 20 20.3942 20C21.7881 20 22.9177 21.1225 22.9177 22.5079V37.4912C22.9177 38.8775 21.7881 40 20.3942 40Z" fill="#E51236"/>
<path fill-rule="evenodd" clip-rule="evenodd" d="M25.637 15.7448C24.918 15.7448 24.205 15.4397 23.7091 14.8521C22.822 13.7981 22.9683 12.2371 24.0318 11.3602L36.8882 0.787035C37.9517 -0.088894 39.5329 0.0528297 40.4192 1.1069C41.3064 2.159 41.161 3.72092 40.0965 4.59587L27.2411 15.172C26.7722 15.5568 26.2036 15.7448 25.637 15.7448Z" fill="#E51236"/>
<path fill-rule="evenodd" clip-rule="evenodd" d="M15.3263 16.0242C14.7624 16.0242 14.1955 15.8326 13.7288 15.4404L0.901838 4.66138C-0.159549 3.77266 -0.305502 2.17777 0.578159 1.10549C1.46083 0.0342104 3.0395 -0.113241 4.0999 0.779494L16.9269 11.5555C17.9882 12.4472 18.1342 14.0401 17.2506 15.1144C16.7561 15.7133 16.0432 16.0242 15.3263 16.0242Z" fill="#E51236"/>
</g>
<defs>
<clipPath id="clip0_283_4208">
<rect width="41" height="40" fill="white"/>
</clipPath>
</defs>
</svg>
