<svg width="13" height="7" viewBox="0 0 13 7" fill="none" xmlns="http://www.w3.org/2000/svg">
<path d="M6.5 4.46182L11.0471 0.293892C11.2608 0.0979637 11.5329 -6.41296e-08 11.8632 -4.96898e-08C12.1936 -3.52501e-08 12.4656 0.0979637 12.6794 0.293892C12.8931 0.48982 13 0.739183 13 1.04198C13 1.34478 12.8931 1.59414 12.6794 1.79007L7.31614 6.70609C7.19955 6.81296 7.07324 6.88884 6.93722 6.93372C6.8012 6.97861 6.65546 7.0007 6.5 6.99998C6.34454 6.99927 6.1988 6.97718 6.06278 6.93372C5.92676 6.89026 5.80045 6.81439 5.68386 6.70609L0.32063 1.79007C0.106878 1.59414 -5.87822e-08 1.34478 -4.55465e-08 1.04198C-3.23107e-08 0.739183 0.106878 0.48982 0.32063 0.293891C0.534382 0.0979632 0.806428 -5.32998e-07 1.13677 -5.18558e-07C1.46712 -5.04118e-07 1.73916 0.0979632 1.95292 0.293892L6.5 4.46182Z" fill="#001A52"/>
</svg>
